<?xml version="1.0" encoding="UTF-8"?>
<svg width="430px" height="136px" viewBox="0 0 430 136" version="1.1" xmlns="http://www.w3.org/2000/svg" xmlns:xlink="http://www.w3.org/1999/xlink">
    <!-- Generator: Sketch 50.2 (55047) - http://www.bohemiancoding.com/sketch -->
    <title>flint-logo-dark-with-type</title>
    <desc>Created with Sketch.</desc>
    <defs></defs>
    <g id="Page-1" stroke="none" stroke-width="1" fill="none" fill-rule="evenodd">
        <g id="flint-logo-dark-with-type" fill-rule="nonzero">
            <path d="M247,54.31 L247,33.87 C223.44,32.45 212.51,44.37 212.51,64.24 L203,64.24 L203,84.68 L212.51,84.68 L212.51,135.21 L233.8,135.21 L233.8,84.68 L247,84.68 L247,64.24 L233.8,64.24 C233.77,56 239,53.6 247,54.31 Z" id="Shape" fill="#002830"></path>
            <polygon id="Shape" fill="#002830" points="254.78 33.75 254.78 135.21 276.07 135.21 276.07 33.75"></polygon>
            <path d="M286,64.24 L286,135.24 L307.29,135.24 L307.29,64.24 L286,64.24 Z M296.65,32.45 C291.479155,32.4459555 286.815403,35.5582193 284.834737,40.3346846 C282.854071,45.1111499 283.946838,50.6104799 287.603179,54.2668208 C291.25952,57.9231616 296.75885,59.0159285 301.535315,57.0352629 C306.311781,55.0545974 309.424044,50.3908453 309.42,45.22 C309.344265,38.1989333 303.671067,32.5257346 296.65,32.45 Z" id="Shape" fill="#002830"></path>
            <path d="M358.82,62.26 C349.45,62.26 342.35,65.66 338.52,70.91 L338.52,64.24 L317.23,64.24 L317.23,135.24 L338.52,135.24 L338.52,96.46 C338.52,86.39 343.92,81.84 351.72,81.84 C358.54,81.84 364.07,85.96 364.07,94.76 L364.07,135.21 L385.36,135.21 L385.36,91.64 C385.36,72.48 373.15,62.26 358.82,62.26 Z" id="Shape" fill="#002830"></path>
            <path d="M429.77,84.68 L429.77,64.24 L415.15,64.24 L415.15,44.37 L393.86,50.76 L393.86,109.76 C393.86,129.64 401.95,138.01 429.77,135.17 L429.77,115.87 C420.4,116.44 415.15,115.87 415.15,109.76 L415.15,84.68 L429.77,84.68 Z" id="Shape" fill="#002830"></path>
            <path d="M69.91,29.78 C65.24,25.12 64.12,16.62 67.42,10.91 L71,4.65 C74.3,-1.07 79.7,-1.07 83,4.65 L100.29,34.59 C103.59,40.31 103.91,47.37 100.99,50.29 C98.07,53.21 91.87,51.77 87.2,47.11 L69.91,29.78 Z" id="Shape" fill="#002830"></path>
            <path d="M23.71,109.79 C19.05,105.12 17.93,96.63 21.23,90.91 L53.35,35.28 C56.65,29.56 63.17,28.7 67.83,33.37 L84.4,49.94 C86.6594542,52.1916225 87.9294628,55.2501823 87.9294628,58.44 C87.9294628,61.6298177 86.6594542,64.6883775 84.4,66.94 L41.1,110.24 C38.8483775,112.499454 35.7898177,113.769463 32.6,113.769463 C29.4101823,113.769463 26.3516225,112.499454 24.1,110.24 L23.71,109.79 Z" id="Shape" fill="#002830"></path>
            <path d="M8.23,134.22 C1.63,134.22 -1.07,129.54 2.23,123.82 L7.16,115.28 C10.46,109.57 16.98,108.71 21.64,113.38 L34,125.73 C38.67,130.4 37.09,134.22 30.49,134.22 L8.23,134.22 Z" id="Shape" fill="#002830"></path>
            <path d="M69.94,99 C63.34,99 61.76,95.18 66.43,90.52 L99.89,57.05 C104.56,52.39 111.03,53.27 114.27,59.05 L130.94,88.58 C134.18,94.33 131.44,99.03 124.84,99.03 L69.94,99 Z" id="Shape" fill="#45FF89"></path>
            <path d="M126.16,134.22 C119.56,134.22 115.44,128.97 116.99,122.55 L118.9,114.68 C120.45,108.27 125.64,103.02 130.43,103.02 C135.22,103.02 141.9,107.66 145.29,113.32 L151.62,123.92 C155.01,129.58 152.38,134.22 145.78,134.22 L126.16,134.22 Z" id="Shape" fill="#002830"></path>
            <path d="M60.14,134.22 C53.54,134.22 45.29,131.36 41.79,127.87 C38.29,124.38 39.26,117.7 43.93,113 L45.46,111.48 C50.12,106.81 59.34,102.99 65.94,102.99 L105.61,102.99 C112.21,102.99 116.34,108.24 114.78,114.65 L112.87,122.52 C110.97831,129.208796 104.99589,133.919649 98.05,134.19 L60.14,134.22 Z" id="Shape" fill="#002830"></path>
        </g>
    </g>
</svg>